<svg version="1.2" baseProfile="tiny" xmlns="http://www.w3.org/2000/svg" width="920" height="850" viewBox="0 0 920 850"><path d="M461.3 834.4c-227 0-411.7-184.7-411.7-411.7S234.3 11 461.3 11 873 195.7 873 422.7 688.3 834.4 461.3 834.4zm0-804.9c-216.8 0-393.2 176.4-393.2 393.2 0 216.8 176.4 393.2 393.2 393.2 216.8 0 393.2-176.4 393.2-393.2 0-216.8-176.4-393.2-393.2-393.2z"/><path d="M14.6 496H908v183.1H14.6z"/><path d="M538 207.3c-3.9-7-15.9-28.3-16.3-32.5-.9-9.9 6.1-18.1 3.1-27.6-2.9-9.3-14.4-16.2-12-25.6.9-3.4 3.7-5.9 6.4-8.1 6.5-4.2 8.8-6 18.9-12.3.9-.5 2.3-4.3-2.1-5.2-12.8-2.5-28.4-1.3-40.6.9-32.4 5.7-59.2 17.2-84.7 37.4-30.3 24-57.6 51.9-82.5 81.3 0 0-40.8 32.6-61.8 48.2-57.1 42.6-86.4 113.3-103.6 181.9-1.4 5.7-4.5 11-9 14.8-14.4 11.7-29.3-.9-35.1-14.4-9.8-22.8-4.2-49.6 6.8-71.9 11-22.3 26.8-41.8 38.8-63.6-46.6 16.8-80.8 63.4-82.8 112.9-.6 15 1.7 30.7 10.2 43.1 13.8 20.3 40.4 28.2 64.8 31.2 2.8.3 5.8-.3 8.9 0h184.5c.5-8.8-7.3-18.3-16-20.6-9.5-2.4-19.6.3-29 2.9 17.7-12.6 32.5-29.4 42.7-48.6 3 12.6 11.6 59.2 19.7 66.2 0 0 12 1.6 20.5 0 .6-.1 2.6-4.1 4.3 0h39.3c.7-19.2-15.3-16.6-15.9-18.4 0 0-3.5-9.5-3.9-14.8-2.3-32.1-4.4-65.1 5.3-95.8 7.1-22.5 20.5-43.1 23.9-66.4 2.3-15.7 0-31.7 0-47.6 0-15.8.9-31.5 15-41.3 3.1-2.1 6.6-3.9 10.4-4 9.9-.3 41.3 20.1 41.3 20.1 10.6 5.9 31.9-5.7 31.9-5.7 2.5-.2 3.4-3.9 3.3-6.4.1-1.5-3.7-8.3-4.7-10.1z"/><path d="M832.5 418.8c-7.3-12.9-18.8-23.3-30.6-31.8-2.3-1.7-7.3-2.9-9-.7-1.7 2.3.7 5.5 2.9 7.1 20.9 15.2 39.1 37.8 32.3 65.3-4.2 17-19.4 27.7-36.3 27.8-12.6.1-22-2.5-29.5-8.1-1.6-1.2-5.6-4.2-7-5.7-5.9-6.2-7.5-8.9-9.2-17.2-.8-4.1-1.2-9.2-1.6-14.2-.4-5.3-.9-10.9-1.8-15-2.1-9.5-5.4-19.9-10.2-31.8-1.6-4-3.1-7.5-4.6-10.8-5.5-12.3-11-21.9-17.2-30.1-12.8-17.1-30.9-25.2-45.3-30.4-5.4-1.9-17.1-6.5-18.7-7.3-9.9-14.8-19.2-28.1-19.2-29.8-7.1-22.6-4.9-51.9-12.4-74.5-1.7-5-6.1-19.7-9.7-15.8-4.9 5.3 6.5 22.2-7.2 20.8-4.3-.4-15.7-1.6-17.2-1.6-4.8-.1-9.8 1-14.3 3.5-.9.5-7.1 5.9-8.1 6.2-5.1 1.3-18.2-1.5-19.4 5.4-.8 4.7-.4 10 0 14.7.3 3.6.3 9.5 2.8 12.4 4.7 5.4 11.9 5.5 18.1 9.1 9.3 5.5 13.7 14.3 15.4 24.8 1.1 6.7 1.6 14.1 1.9 21.7-3.8 8.2-6.1 16.9-6 25.8.1 19.6 3.2 38.4 6.2 56.7.3 2-3 52.5-21.1 92-.4.9-1.4 1.4-2.4 1.2-4.6-1-8.4-.4-11.1 1.8-1.2 1-1.9 6-1.9 7.7 0 1.5.6-1.1 1.5 0h22.6c.4-.4.7.4 1.2 0 2.5-2.5 3.9-9.8 5.3-13.3 10.3-25.6 22.1-50.9 35.1-75.2.6-1 3.5 3.1 13.7 1.8 0 0-3.4 55.3-13.2 76.8-.4.8-2.9 1.2-3.4 1.2-6.1 0-8.3.9-9.8 4.1-.6 1.2-.5 3.1.2 4.6h24.2c2.1-1.8 4.1-4.5 4.9-6.2 6.2-12.5 11.1-25.4 14.9-39 17 21.7 35.1 30.1 35.1 30.1.8.5 1.1 1.5.8 2.3-.3.9-1.1 1.5-2 1.5-5.6.2-15.6-1.9-17.5-1.8-4.5.2-6.5 1.3-8.6 4.9-1.4 2.4-1.3 5.7.1 8h81.9c3.4-1.5 5.7-4.1 6.8-7 .2-.6.7-1 1.2-1.2.6-.2 1.2-.2 1.7.1 6.6 3.3 14 6.9 22.4 8.1 12.9 1.9 25.9 2.2 38.8 0 32.2-5.4 48.5-41.9 36.9-71.2-.7-2.7-1.9-5.3-3.4-7.8z"/><path d="M278.5 518.8l-.2 17.2c0 4.8.3 12 1 21.6.7 9.6 1 17.4 1 23.3 0 5.9-.8 11-2.4 15.3-1.6 4.2-4.4 7.8-8.4 10.7-1.2 0-2.1-.3-2.9-.9-.8-.6-1.1-1.4-1.1-2.4s.5-1.9 1.4-2.8c.9-.8 1.9-1.5 3-1.9 3-3.7 4.4-8.9 4.4-15.7 0-3.7-.2-9-.6-15.8-.4-6.9-.6-11.5-.7-13.9-.1-2.4-.1-5.5-.1-9.2 0-3.7-.1-6.8-.1-9.1-.1-6.3-.6-12-1.4-17.2-.3 0-.7.1-1.5.3-1.4.4-2.6.5-3.3.5-.8 0-1.4-.3-2-.8-.6-.6-.8-1.2-.8-2 0-2.6 4.4-3.9 13.3-3.9 4.3 0 6.4 1 6.4 3s-1.6 3-4.9 2.9v.8zm40 27.9l.1 1.9c-.5 2.6-.9 7.1-1.1 13.4s-.5 11.5-.9 15.3c-.5 3.9-1.1 7.3-1.9 10.2-.8 2.9-2.1 5.4-3.8 7.3-1.8 2-3.7 2.9-5.9 2.9s-3.9-.4-5.3-1.2c-1.4-.8-2.5-1.9-3.4-3.4-.9-1.5-1.6-3-2.2-4.7-.6-1.7-1-3.6-1.3-5.8-.5-3.9-.8-8-.8-12.3l.6-29.3c0-6.4-.5-11.7-1.4-15.9v-2.7c1.8 0 3.2.7 4.2 2.1 1 1.4 1.5 2.9 1.5 4.6v53.7c0 2.9.7 5.5 2.1 7.8s3.5 3.6 6.3 3.6c3.1 0 5.2-9.1 6.3-27.4v-.5l.1-.7c.9-16.7 1.4-30.2 1.4-40.6l-.1-1.8c0-.9.2-1.5.6-2 .4-.4 1.2-.7 2.3-.7 1.1 0 2 .3 2.5.9.5.6.9 1.2.9 1.9.1.6.1 1.5.1 2.6l-.8 11.2-.1 9.6zm17.2 16.7c-.5 2.1-.8 4-.8 5.7s.2 5.5.7 11.2c.5 5.7.7 9.4.7 11.1 0 1.7-.3 2.9-.9 3.8-.6.9-1.3 1.3-2 1.3-1.1 0-1.8-.7-2.1-2.2.1-2.7.1-6.1.1-10.1s-.3-12.8-.9-26.3c-.6-13.6-.9-23.7-.9-30.4 0-3.5 1.2-5.3 3.7-5.3 3.9 0 7.1 1 9.8 3 2.6 2 4 4.9 4 8.7 0 5.1-.4 9-1.2 11.8-.8 2.8-2.3 6.3-4.5 10.6.4 1.8 1.1 5.3 2.1 10.6 2.1 11.5 4.5 19.8 7.2 24.9.8 1.4 1.1 2.6 1.1 3.4s-.2 1.5-.7 2.1c-.5.6-1.1.8-1.8.8-2.4 0-4.6-4-6.7-12.1-.9-3.5-1.6-7-2.3-10.6-2-9.8-3.2-15.3-3.7-16.5-.1.9-.4 2.4-.9 4.5zm-.1-37l-.4 1.6c0 3 .1 7.4.2 13.1.1 5.7.2 9.9.2 12.5 1.7-.9 3.1-3.3 4.2-7.1s1.6-6.7 1.6-8.8c0-2-.1-3.5-.2-4.5s-.3-2-.7-3.2c-.6-2.3-2.3-3.6-4.9-3.6zm50.4 51.9l-.6 2.2c0 .9.3 3.1 1 6.6.7 3.5 1 5.8 1 6.9v.1c0 1.7-.6 2.7-1.7 3.1-1.6 0-2.8-.3-3.6-.8-.9-.5-1.3-1.8-1.3-3.8s-.5-6.2-1.6-12.6l-3.4-.3H372c-.8-.4-2.3-.5-4.4-.5 0 .1 0 .6-.1 1.4-.1.9-.2 1.6-.2 2.1s-.1 1.3-.3 2.4c-.1 1.1-.3 2-.4 2.7-.1.7-.3 1.6-.5 2.6s-.5 1.8-.7 2.5c-.3.7-.6 1.3-.9 1.9-.7 1.3-1.4 1.9-2.4 1.9-.9 0-1.8-.3-2.5-.8-.7-.6-1.1-1.3-1.1-2.1 2-7.5 3.6-15.3 5-23.5s2.2-13.1 2.5-14.6.9-4.5 1.9-8.9c1-4.4 1.6-7.3 1.8-8.8.2-1.5.4-3.4.6-5.7.3-5.1 1-8.4 2-9.9h3.7c2.5 0 3.8.8 3.8 2.3 0 14.3 1.4 28.5 4.2 42.6.1.8.4 2 .8 3.5.8 3.1 1.2 5.6 1.2 7.5zm-7.6-2.4c-.2-1.1-.3-2.8-.3-5.3 0-2.4-.2-5.4-.5-8.8-.3-3.5-.8-7.5-1.3-12-.6-4.6-1-7.8-1.2-9.9-.4 2.1-1.3 5.6-2.5 10.5-2.6 10.2-3.9 18.1-4 23.6 1.3 1 4.6 1.6 9.8 1.9zm17.2 15.7l5.9.8c1.4 0 2.6-.6 3.7-1.8 1-1.2 1.8-2.8 2.3-4.6 1-3.5 1.5-6.7 1.5-9.4s-.5-5.4-1.4-8.1c-.9-2.7-2-5.2-3.3-7.5-1.3-2.3-2.6-4.6-4-7-3.1-5.6-4.7-11.1-4.7-16.6 0-3.3.6-6.3 1.7-8.8 2.1-4.8 4.9-7.2 8.3-7.2 1.3 0 2.5.4 3.7 1.2 1.2.8 1.8 1.7 1.8 2.7 0 1.7-.9 2.5-2.7 2.5-.8 0-1.6-.2-2.3-.7-2.3.1-3.9 2.7-4.8 7.9-.2 1.1-.3 2.4-.3 3.9s.3 3.4 1 5.6c.7 2.2 1.5 4.2 2.5 5.9 1 1.7 2.1 3.6 3.2 5.7s2.2 4.1 3.2 6c2.3 4.5 3.4 9.7 3.4 15.5 0 4.6-.9 8.9-2.8 12.8-1 2-2.4 3.7-4.1 5-1.8 1.3-3.9 1.9-6.2 2v.3c-1.4-.2-2.6-.6-3.7-1.4-1.1-.7-1.8-1.7-1.9-2.9v-1.8zm27.1 0l5.9.8c1.4 0 2.6-.6 3.7-1.8 1-1.2 1.8-2.8 2.3-4.6 1-3.5 1.5-6.7 1.5-9.4s-.5-5.4-1.4-8.1c-.9-2.7-2-5.2-3.3-7.5-1.3-2.3-2.6-4.6-4-7-3.1-5.6-4.7-11.1-4.7-16.6 0-3.3.6-6.3 1.7-8.8 2.1-4.8 4.9-7.2 8.3-7.2 1.3 0 2.5.4 3.7 1.2 1.2.8 1.8 1.7 1.8 2.7 0 1.7-.9 2.5-2.7 2.5-.8 0-1.6-.2-2.3-.7-2.3.1-3.9 2.7-4.8 7.9-.2 1.1-.3 2.4-.3 3.9s.3 3.4 1 5.6c.7 2.2 1.5 4.2 2.5 5.9 1 1.7 2.1 3.6 3.2 5.7s2.2 4.1 3.2 6c2.3 4.5 3.4 9.7 3.4 15.5 0 4.6-.9 8.9-2.8 12.8-1 2-2.4 3.7-4.1 5-1.8 1.3-3.9 1.9-6.2 2v.3c-1.4-.2-2.6-.6-3.7-1.4-1.1-.7-1.8-1.7-1.9-2.9v-1.8zm42.4 3.4l-4.2.1-4.8.2c-2.1 0-3.4-.7-4.1-2 0-1.1.1-1.9.4-2.5.3-.6.8-.9 1.7-.9h3.1l.2-1.5-.8-23.6.6-24.7c0-4.2-.2-8.1-.5-11.8h-4.3c-1.3 0-2.3-.2-2.9-.6-.6-.4-.9-1.2-.9-2.4 0-1.7 2-2.6 6-2.5h.4c9.5 0 14.3 1.3 14.3 3.8 0 .4-.2 1.1-.7 2.1H463c.3 2.7.4 5.9.4 9.5l-.6 21.2.8 23.6v3.3c0 .7-.1 1.6-.4 3h4.7c3 0 4.6.9 4.6 2.8 0 .8-.3 1.5-.8 2.1-.5.6-1.1.9-1.8.9l-4.8-.1zm34.2-4c2.2 0 3.4.8 3.4 2.4 0 2.9-2.1 4.4-6.2 4.4-1.7 0-3.4-.2-5.2-.7-1.8-.5-3.1-1-4-1.6-4.9-3.2-7.4-11.9-7.4-26.1l-.1-6.5c0-21.3 2.6-33.8 7.8-37.7 2.7-2 6.4-2.9 11.2-2.9.8 0 1.5.3 2.2.9.7.6 1 1.2 1 2v.4c-.7 1.7-2.5 2.5-5.4 2.5l-2-.1c-1.2 0-2.3.7-3.3 2s-1.7 2.9-2.2 4.8c-.5 1.9-.9 4-1.2 6.3-.5 3.7-.8 7.1-.8 10.2v.5l-.7 21.4c0 4.5.2 7.6.7 9.4.5 1.7 1 3.1 1.5 4.2s1.1 1.9 1.9 2.6c1.7 1.6 3.8 2.4 6.4 2.4.9.2 1.7-.2 2.4-.8zm28.5-70.8c0-4.8 1.4-7.3 4.2-7.3 3.4 0 6.3.8 8.8 2.4 5.1 3.2 7.6 8.5 7.6 15.8 0 5.6-2.3 11.6-6.8 18 3.1 4.4 5.1 7.1 5.7 7.9.7.8 1.3 1.6 1.8 2.5.5.8.8 1.4.9 1.6.1.2.2.8.4 1.7.2.9.3 1.8.3 2.4 0 1.8.2 3.9.5 6.3s.5 3.8.6 4.1c.1.3 0 1.2-.4 2.8-.4 1.6-.6 2.6-.8 3.1-.1.5-.3 1.2-.6 2.2-.3.9-.5 1.6-.7 2.1-.2.5-.4 1-.8 1.8-.3.7-.7 1.3-1 1.7-.3.4-.7.9-1.2 1.5s-1 1.1-1.5 1.5c-.5.4-1.2.8-1.8 1.3-2.3 1.6-4.3 2.6-6.1 3.1-1.8.5-2.8.7-3 .7h-.5c-2 0-3.3-.1-3.8-.4-1-.6-1.6-1.4-1.6-2.3l.5-27.3-.8-45.1v-2.1zm7.5-1c-1 0-1.5 1.3-1.5 4s.1 6.8.2 12.5.2 9.8.2 12.4c2.6-.6 4.9-3.9 6.8-9.8 1-3.1 1.7-5 2-5.7v-4c0-2.2-.8-4.3-2.3-6.4-1.6-2-3.3-3-5.4-3zm2.7 34.5l-3.8-.1c.3 9.2.5 21.8.5 37.7 3.6-.6 6.4-2.3 8.5-5.1 2.1-2.8 3.1-6.2 3.1-10-.1-12.5-2.8-20-8.3-22.5zm49 24.6l-.6 2.2c0 .9.3 3.1 1 6.6.7 3.5 1 5.8 1 6.9v.1c0 1.7-.6 2.7-1.7 3.1-1.6 0-2.8-.3-3.6-.8-.9-.5-1.3-1.8-1.3-3.8s-.5-6.2-1.6-12.6l-3.4-.3h-3.7c-.8-.4-2.3-.5-4.4-.5 0 .1 0 .6-.1 1.4-.1.9-.2 1.6-.2 2.1-.1.5-.1 1.3-.3 2.4-.1 1.1-.3 2-.4 2.7-.1.7-.3 1.6-.5 2.6s-.5 1.8-.7 2.5c-.3.7-.6 1.3-.9 1.9-.7 1.3-1.4 1.9-2.4 1.9-.9 0-1.8-.3-2.5-.8-.7-.6-1.1-1.3-1.1-2.1 2-7.5 3.6-15.3 5-23.5s2.2-13.1 2.5-14.6c.3-1.5.9-4.5 1.9-8.9 1-4.4 1.6-7.3 1.8-8.8.2-1.5.4-3.4.6-5.7.3-5.1 1-8.4 2-9.9h3.7c2.5 0 3.8.8 3.8 2.3 0 14.3 1.4 28.5 4.2 42.6.1.8.4 2 .8 3.5.7 3.1 1.1 5.6 1.1 7.5zm-7.5-2.4c-.2-1.1-.3-2.8-.3-5.3 0-2.4-.2-5.4-.5-8.8-.3-3.5-.8-7.5-1.3-12-.6-4.6-1-7.8-1.2-9.9-.4 2.1-1.3 5.6-2.5 10.5-2.6 10.2-3.9 18.1-4 23.6 1.2 1 4.5 1.6 9.8 1.9zm24-12.5c-.5 2.1-.8 4-.8 5.7s.2 5.5.7 11.2c.5 5.7.7 9.4.7 11.1 0 1.7-.3 2.9-.9 3.8-.6.9-1.3 1.3-2 1.3-1.1 0-1.8-.7-2.1-2.2.1-2.7.1-6.1.1-10.1s-.3-12.8-.9-26.3c-.6-13.6-.9-23.7-.9-30.4 0-3.5 1.2-5.3 3.7-5.3 3.9 0 7.1 1 9.8 3 2.6 2 4 4.9 4 8.7 0 5.1-.4 9-1.2 11.8-.8 2.8-2.3 6.3-4.5 10.6.4 1.8 1.1 5.3 2.1 10.6 2.1 11.5 4.5 19.8 7.2 24.9.8 1.4 1.1 2.6 1.1 3.4s-.2 1.5-.7 2.1c-.5.6-1.1.8-1.8.8-2.4 0-4.6-4-6.7-12.1-.9-3.5-1.6-7-2.3-10.6-2-9.8-3.2-15.3-3.7-16.5-.2.9-.4 2.4-.9 4.5zm-.2-37l-.4 1.6c0 3 .1 7.4.2 13.1.1 5.7.2 9.9.2 12.5 1.7-.9 3.1-3.3 4.2-7.1s1.6-6.7 1.6-8.8c0-2-.1-3.5-.2-4.5s-.3-2-.7-3.2c-.6-2.3-2.2-3.6-4.9-3.6zm33 0l-.9 20.2v5.8c.2-.4 1.6-3.3 4.1-8.8 6.3-13.5 10.2-20.3 11.7-20.3 1.1 0 2.1.3 3 .8.9.5 1.3 1.2 1.3 2.2 0 .1-1.9 3.2-5.6 9.4-3.8 6.2-5.9 9.8-6.3 10.7l-.2 6.6c0 3.2 1.3 9.1 3.8 17.8s4.7 14.5 6.4 17.3c.2.3.7 1 1.4 2s1.3 1.9 1.6 2.7c.3.8.5 1.6.5 2.4 0 .8-.3 1.5-.9 2.1-.6.6-1.4.8-2.2.8-1.7 0-3.5-1.8-5.4-5.5-1.9-3.7-3.6-8.2-5-13.5-2.5-9.1-4.3-17-5.5-23.7-1.2 1.3-2.2 3-2.8 5.1-.7 2.1-1 3.6-1 4.4v30.4c0 1.7-.8 2.6-2.4 2.6-1.1 0-2-.3-2.7-.9-.7-.6-1-1.5-1-2.6v-33.7c0-4 .4-10 1.1-18 .7-8 1.1-13.9 1.1-17.9.7-1.4 1.6-2.1 2.8-2.1 2 0 3.1 1.2 3.1 3.7zM402.6 636.8l-.4-16.7c0-.2.1-.5.4-.8.3-.3.6-.4 1-.4s.7.3 1 .9c.3.6.4 1.6.4 2.9 0 3.7.2 9.3.5 16.8s.5 13 .5 16.8c0 .4-.1.9-.4 1.3-.3.4-.6.6-1.1.6-.9 0-1.3-.6-1.3-1.7 0-6.3-.1-12.3-.4-17.9-.9-.2-1.7-.2-2.5-.2s-1.4.1-2 .4c0 1.9.2 4.7.4 8.5s.4 6.7.4 8.7c0 .3-.1.6-.3.9-.2.3-.5.4-.8.4-.5 0-1-.2-1.2-.7-.3-.5-.4-1.7-.5-3.6s-.1-4.1-.1-6.4c0-2.3 0-3.7-.1-4.1-.6-8.8-.9-16.3-.9-22.6v-.4c0-.5.3-.8.9-.8 1 0 1.6.4 1.8 1.1-.1 1.2-.2 2.5-.2 3.8l.3 10.5v1.9c0 .5 0 .9.1 1.3l4.5-.5zm19.9 12.3l-.3 1c0 .4.1 1.4.4 3 .3 1.6.4 2.7.4 3.2 0 .8-.3 1.2-.8 1.4-.7 0-1.3-.1-1.7-.3-.4-.2-.6-.8-.6-1.8 0-.9-.2-2.9-.7-5.8l-1.6-.1h-1.7c-.4-.2-1.1-.2-2-.2 0 0 0 .3-.1.7 0 .4-.1.7-.1 1s-.1.6-.1 1.1c-.1.5-.1.9-.2 1.2-.1.3-.1.7-.2 1.2s-.2.8-.3 1.1-.3.6-.4.9c-.3.6-.7.9-1.1.9s-.8-.1-1.2-.4c-.3-.3-.5-.6-.5-1 .9-3.4 1.7-7 2.3-10.8.6-3.8 1-6 1.1-6.7.1-.7.4-2.1.9-4.1.5-2 .7-3.4.8-4 .1-.7.2-1.6.3-2.6.1-2.4.5-3.9.9-4.5h1.7c1.2 0 1.7.3 1.7 1 0 6.5.6 13 1.9 19.5.1.4.2.9.4 1.6.6 1.5.8 2.6.8 3.5zm-3.4-1.1c-.1-.5-.1-1.3-.1-2.4 0-1.1-.1-2.5-.2-4s-.3-3.4-.6-5.5-.4-3.6-.5-4.5c-.2 1-.6 2.6-1.2 4.8-1.2 4.7-1.8 8.3-1.8 10.8.4.4 1.9.6 4.4.8zm11-5.7c-.2.9-.3 1.8-.3 2.6s.1 2.5.3 5.1c.2 2.6.3 4.3.3 5.1s-.1 1.3-.4 1.7c-.3.4-.6.6-.9.6-.5 0-.8-.3-.9-1v-4.6c0-1.8-.1-5.9-.4-12.1-.3-6.2-.4-10.8-.4-13.9 0-1.6.6-2.4 1.7-2.4 1.8 0 3.3.5 4.5 1.4 1.2.9 1.8 2.3 1.8 4 0 2.3-.2 4.1-.5 5.4s-1.1 2.9-2.1 4.8c.2.8.5 2.4 1 4.9 1 5.3 2.1 9.1 3.3 11.4.3.7.5 1.2.5 1.6 0 .4-.1.7-.3.9-.2.3-.5.4-.8.4-1.1 0-2.1-1.8-3.1-5.5-.4-1.6-.8-3.2-1.1-4.9-.9-4.5-1.5-7-1.7-7.6-.2.4-.3 1.1-.5 2.1zm-.1-17l-.2.7c0 1.4 0 3.4.1 6s.1 4.5.1 5.7c.8-.4 1.4-1.5 1.9-3.2.5-1.7.7-3.1.7-4 0-.9 0-1.6-.1-2 0-.4-.2-.9-.3-1.5-.2-1.1-1-1.7-2.2-1.7zm13.9 17c-.2.9-.3 1.8-.3 2.6s.1 2.5.3 5.1c.2 2.6.3 4.3.3 5.1s-.1 1.3-.4 1.7c-.3.4-.6.6-.9.6-.5 0-.8-.3-.9-1v-4.6c0-1.8-.1-5.9-.4-12.1-.3-6.2-.4-10.8-.4-13.9 0-1.6.6-2.4 1.7-2.4 1.8 0 3.3.5 4.5 1.4 1.2.9 1.8 2.3 1.8 4 0 2.3-.2 4.1-.5 5.4s-1.1 2.9-2.1 4.8c.2.8.5 2.4 1 4.9 1 5.3 2.1 9.1 3.3 11.4.3.7.5 1.2.5 1.6 0 .4-.1.7-.3.9-.2.3-.5.4-.8.4-1.1 0-2.1-1.8-3.1-5.5-.4-1.6-.8-3.2-1.1-4.9-.9-4.5-1.5-7-1.7-7.6-.2.4-.3 1.1-.5 2.1zm-.1-17l-.2.7c0 1.4 0 3.4.1 6s.1 4.5.1 5.7c.8-.4 1.4-1.5 1.9-3.2.5-1.7.7-3.1.7-4 0-.9 0-1.6-.1-2 0-.4-.2-.9-.3-1.5-.2-1.1-1-1.7-2.2-1.7zm23.1 18.3c0 9.8-2 14.6-6 14.6-3.7 0-5.7-4.6-6.2-13.9v-6.7c0-7.2 1.1-11.6 3.2-13.3.5-.4 1.1-.6 1.7-.7.5.2 1.1.3 1.8.5.7.1 1.2.3 1.5.4.6.3 1.3 1 2 2.2s1.2 2.8 1.6 4.7c.3 2 .5 4 .5 6v6.2zm-9.4-12l.1 3v6.4c0 .6 0 1.3.1 2.2 0 .9.1 1.8.1 2.7.1.9.2 1.9.3 2.9.1 1 .2 1.9.4 2.8s.3 1.6.5 2.3c.4 1.5 1 2.3 1.8 2.3 1 0 1.7-.9 2.2-2.8.8-2.7 1.1-6.1 1.1-10.1l.1-5.2c0-3.7-.2-6.2-.5-7.4-.3-1.3-.6-2.2-.9-2.9-.6-1.3-1.4-2-2.6-2h-.1c-1.7 0-2.6 1.9-2.6 5.8zm22 12.8h-.9c-.5 0-.9-.1-1.1-.2-.3-.2-.4-.5-.4-.9 0-.5.2-.8.5-1.1.3-.2.7-.4 1.1-.4 3.3 0 5 .5 5 1.6l-.5 3.7.2 5.4c0 1-.1 1.8-.2 2.5-2 1.8-3.7 2.7-5.2 2.7-.8 0-1.6-.2-2.2-.7-.7-.4-1.3-1.2-2-2.2-.6-1.1-1.2-3.1-1.7-6s-.7-5-.7-6.2c0-1.2 0-2.1.1-2.9s.1-1.6.2-2.6.2-1.6.2-1.9c0-.3 0-.7.1-1.2 0-.5.1-1.1.1-1.5 0-.5.1-1.2.3-2.1.1-.9.3-1.6.5-2.1s.4-1.1.7-1.8c.3-.7.7-1.2 1.1-1.5 1-.9 2.2-1.3 3.5-1.3 1.3 0 2 .4 2 1.3 0 .4-.1.7-.4 1-.3.3-.6.4-1 .4l-.9-.1c-1 0-1.7 1.2-2.3 3.5-.5 2.3-.8 4.3-.9 6.1-.1 2.8-.2 4.6-.2 5.5v4c0 .8.1 1.4.1 2 .1.6.1 1.2.2 1.9s.2 1.3.4 1.8c.1.5.3 1 .5 1.6.2.5.4.9.7 1.3.6.7 1.3 1.1 2.1 1.1 1.5 0 2.2-2.9 2.2-8.6v-1.9c-.4-.1-.8-.2-1.2-.2zm20.3 4.7l-.3 1c0 .4.1 1.4.4 3 .3 1.6.4 2.7.4 3.2 0 .8-.3 1.2-.8 1.4-.7 0-1.3-.1-1.7-.3-.4-.2-.6-.8-.6-1.8 0-.9-.2-2.9-.7-5.8l-1.6-.1h-1.7c-.4-.2-1.1-.2-2-.2 0 0 0 .3-.1.7 0 .4-.1.7-.1 1s-.1.6-.1 1.1c-.1.5-.1.9-.2 1.2-.1.3-.1.7-.2 1.2s-.2.8-.3 1.1-.3.6-.4.9c-.3.6-.7.9-1.1.9-.4 0-.8-.1-1.2-.4-.3-.3-.5-.6-.5-1 .9-3.4 1.7-7 2.3-10.8.6-3.8 1-6 1.1-6.7s.4-2.1.9-4.1c.5-2 .7-3.4.8-4 .1-.7.2-1.6.3-2.6.1-2.4.5-3.9.9-4.5h1.7c1.2 0 1.7.3 1.7 1 0 6.5.6 13 1.9 19.5.1.4.2.9.4 1.6.6 1.5.8 2.6.8 3.5zm-3.4-1.1c-.1-.5-.1-1.3-.1-2.4 0-1.1-.1-2.5-.2-4-.1-1.6-.3-3.4-.6-5.5s-.4-3.6-.5-4.5c-.2 1-.6 2.6-1.2 4.8-1.2 4.7-1.8 8.3-1.8 10.8.4.4 1.9.6 4.4.8zm12.9 4.6l.1-1.7c-.1-.4-.4-4.3-.8-11.5s-.6-11.6-.7-13.2c-2 0-3.2-.2-3.6-.5-.5-.3-.7-.6-.7-1s.2-.6.5-.8.7-.3 1.1-.3l6.9.5h.8c1.1 0 1.6.4 1.6 1.2 0 .4-.2.8-.5 1-.3.3-.7.4-1.2.4l-2.3-.3-.1.5c0 3.2.3 8 .8 14.4.6 6.4.8 11.2.8 14.5 0 .4-.2.8-.5 1.1-.3.3-.7.4-1.1.4h-1.1v-4.7zm14 2.8l2-.1c1.3 0 1.9.4 1.9 1.2 0 .5-.2.9-.7 1.1-.4.2-1 .3-1.5.3h-4.8c-.4 0-.8-.1-1.1-.4s-.5-.7-.5-1.1c0-.5 0-1 .1-1.7s.1-1.3.1-1.7l-.2-6.5.3-14.9-.3-4.3c0-2.4.7-3.6 2.1-3.6.4 0 .8.1 1.1.4.1 0 .5 0 1 .1.5 0 .9.1 1.3.2l1.2.3c1 .3 1.4.7 1.4 1.4s-.5 1.2-1.5 1.6c-1.6-.5-2.8-.9-3.9-1 0 .7.1 1.5.1 2.2l-.2 7.3s0 .3.1.8l1.8-.1c1.6 0 2.5.5 2.5 1.4 0 .5-.1.9-.4 1.3-.3.4-.7.6-1.2.6s-1-.1-1.4-.4h-1.3c.1 1.3.1 2.5.1 3.7l-.2 9.2c.2 1.7.9 2.7 2.1 2.7z" fill="#FFF"/><path d="M254.5 760s14.1-25.7 17.1-64.7c0 0 2.5 30.5-14.8 66.2l-2.3-1.5zm4.4 3s12.8-24.1 16.1-46.1c0 0 2.1 14-13.9 47.7l-2.2-1.6z"/><path d="M258.1 762.4s25.7-51.9 38.6-72.6c0 0-15.3 31.2-36.5 74l-2.1-1.4zm2.2 1.5s21.2-40.3 45.5-66c0 0-26.9 34-42.1 68.3l-3.4-2.3z"/><path d="M263.5 766.1s33.4-47.9 48.7-74.5c0 0-12 27.6-45.2 76.8l-3.5-2.3zm12.9 8.7s24.4-38.6 49.1-61.9c0 0-27.9 33.6-45.2 64.5l-3.9-2.6z"/><path d="M261.8 764.9s15.6-23.3 34.4-37.9c18.8-14.6 30.4-31.4 36-39.6 0 0-8.4 18.8-36.9 44.8-24 21.9-30.4 34.8-30.4 34.8l-3.1-2.1z"/><path d="M273.1 772.6S311.8 725 318 708c0 0 3.4 3.9-41.3 67l-3.6-2.4zm4.7 3.1s23.1-15.5 45.1-51.8c0 0-14.4 29.9-40.6 54.9l-4.5-3.1zm-11-7.4s6-15.3 25.8-27.6c0 0-16.5 14-22.4 29.9l-3.4-2.3z"/><path d="M269.5 770.1s6-11.3 18.2-21.4c0 0-4.9 12.3-14 24.2l-4.2-2.8zm-103.6-69.9s12-25 14.1-44.7c0 0-8.5 16.6-16.3 43.2l2.2 1.5zm1 .7s5.1-12.4 11.1-22.6c0 0-2.1 7.5-9.3 23.8l-1.8-1.2zm4.6 3.1s14.1-25.7 17.1-64.7c0 0 2.5 30.5-14.8 66.2l-2.3-1.5z"/><path d="M173 705s12.8-24.1 16.1-46.1c0 0 2.1 14-13.9 47.7L173 705z"/><path d="M172.2 704.5s25.7-51.9 38.6-72.6c0 0-15.3 31.2-36.5 74l-2.1-1.4zm2.2 1.4s21.2-40.3 45.5-66c0 0-26.9 34-42.1 68.3l-3.4-2.3z"/><path d="M176.8 707.6s33.4-47.9 48.7-74.5c0 0-12 27.6-45.2 76.8l-3.5-2.3zm12.2 8.2s25.3-38.3 36.2-73.6c0 0-4.5 30.1-32.4 76.2l-3.8-2.6z"/><path d="M175.9 706.9s15.6-23.3 34.4-37.9c18.8-14.6 30.4-31.4 36-39.6 0 0-8.4 18.8-36.9 44.8-24 21.9-30.4 34.8-30.4 34.8l-3.1-2.1z"/><path d="M186.4 714s38.7-47.6 44.9-64.6c0 0 3.4 3.9-41.3 67l-3.6-2.4zm5.5 3.8s21.7-22 40.2-57.7c0 0-8.8 29-35.6 60.8l-4.6-3.1z"/><path d="M196.1 720.6s27.1-38.9 43.3-57.4c0 0-14.9 24.9-40 59.6l-3.3-2.2z"/><path d="M199.2 722.7s21.6-32.8 44.1-54c0 0-25.1 32.9-40.8 56.2l-3.3-2.2z"/><path d="M204.5 726.2s20.4-15.4 28.3-36.5c7.9-21.2 16.1-32.9 23.2-39.5 0 0-16.2 23.2-19.6 37.3-3.4 14.1-16 32.4-27.9 41.3l-4-2.6z"/><path d="M201.9 724.5s40-49 63.6-66.2c0 0-35.1 34.1-60.1 68.6l-3.5-2.4z"/><path d="M208 728.6s24.1-38.1 62-54.2c0 0-36.4 21.2-58.5 56.5l-3.5-2.3z"/><path d="M210.6 730.4s34.3-40.2 66.5-55.8c0 0-40.8 29.4-63.4 57.9l-3.1-2.1z"/><path d="M213.4 732.3s43.3-38.8 47.3-90.2c0 0 7.8 35.2-43.9 92.5l-3.4-2.3z"/><path d="M215.9 734s36.2-37.9 77-48.2c0 0-46.8 17.9-73.2 50.7l-3.8-2.5z"/><path d="M219.1 736.1s27-20.8 46.3-51.3c0 0-10.2 23.3-42.4 53.9l-3.9-2.6z"/><path d="M229.6 743.2s25.3-22.9 23.4-62.8c0 0 8 27.6-20.5 64.8l-2.9-2z"/><path d="M232.1 744.9s21.3-25.6 15-57.9c0 0 10.5 28.1-12.4 59.6l-2.6-1.7z"/><path d="M227.1 741.5s28.3-39.9 47.8-82.9c0 0-22.9 33.2-51.9 80.1l4.1 2.8z"/><path d="M226.5 741.1s26.2-37.6 59.4-45.5c0 0-32.1 12.9-55.7 47.9l-3.7-2.4zm15.4 10.4s27.7-46.3 80-66.7c0 0-48.4 24.7-76.2 69.3l-3.8-2.6z"/><path d="M247.3 755.2s21.7-33.3 57.3-43.1c0 0-32.1 14.6-53.2 45.8l-4.1-2.7z"/><path d="M254.1 759.7s8.3-4.8 31.1-32.5c0 0-9.6 15.5-27.5 34.9l-3.6-2.4zm4.7 3.2s13.8-4 35.4-41.9c0 0-9.5 25.9-31.6 44.5l-3.8-2.6zm-24.1-16.2s21.1-36.3 49.3-46.3c0 0-30 18-45.7 48.7l-3.6-2.4z"/><path d="M237.7 748.7s18.5-36.9 52.3-33.9c0 0-26.7-1.4-47.4 37.2l-4.9-3.3zm-57.4-38.8s6-15.3 25.8-27.6c0 0-16.5 14-22.4 29.9l-3.4-2.3z"/><path d="M182.7 711.6s6-11.3 18.2-21.4c0 0-4.9 12.3-14 24.2l-4.2-2.8zm77.6 52.3s22-15.3 31.5-51.5c0 0-10 28.8-34.6 49.4l3.1 2.1zm-16.4-11.1s17.9-28 36.5-31.6c0 0-19.8 10.3-32.4 34.4l-4.1-2.8z"/><path d="M250.7 757.4s11.9-19.4 48.2-19.8c0 0-33.3 3-44.2 22.5l-4-2.7zm-78-52.6s45.5-23.8 52.1-85.5c0 0-6.7 48.5-58.2 81.3l6.1 4.2z"/><path d="M167.1 701s29.9-23 33.2-57.4c0 0-1.5 22.7-37 54.8l3.8 2.6zm226.1 118.4s7.1-28.5.2-66.9c0 0 10.1 28.9 2.4 67.8l-2.6-.9zm4.9 1.8s6.2-26.5 3.9-48.7c0 0 5.6 13-1.3 49.6l-2.6-.9z"/><path d="M397.2 820.8s11.7-56.7 19-80c0 0-6.9 34-16.5 80.8l-2.5-.8zm2.5.9s10.3-44.3 27.3-75.4c0 0-17.4 39.7-23.5 76.7l-3.8-1.3z"/><path d="M403.4 823s20.2-54.8 28.2-84.4c0 0-4.6 29.8-24.3 85.7l-3.9-1.3zm14.7 5.2s13.9-43.6 31.8-72.3c0 0-18.5 39.5-27.4 73.9l-4.4-1.6z"/><path d="M401.4 822.3s9.2-26.5 23.7-45.4 21.5-38.1 24.8-47.4c0 0-3.3 20.3-24.3 52.7-17.6 27.2-20.6 41.4-20.6 41.4l-3.6-1.3z"/><path d="M414.3 826.9s25.4-55.8 27.1-73.8c0 0 4.3 2.9-22.9 75.3l-4.2-1.5zm5.3 1.8s18.4-20.9 30.5-61.6c0 0-6.3 32.6-25.4 63.4l-5.1-1.8zm-12.5-4.4s2-16.3 17.9-33.3c0 0-12.4 17.7-14.1 34.6l-3.8-1.3z"/><path d="M410.1 825.4s2.9-12.5 12.2-25.3c0 0-1.6 13.2-7.4 26.9l-4.8-1.6zM292.3 784s5.3-27.2 2.3-46.8c0 0-4 18.2-4.8 45.9l2.5.9zm1.1.4s1.8-13.3 5-24.7c0 0-.2 7.8-3 25.4l-2-.7zm5.2 1.8s7.1-28.5.2-66.9c0 0 10.1 28.9 2.4 67.8l-2.6-.9z"/><path d="M300.3 786.8s6.2-26.5 3.9-48.7c0 0 5.6 13-1.3 49.6l-2.6-.9z"/><path d="M299.4 786.5s11.7-56.7 19-80c0 0-6.9 34-16.5 80.8l-2.5-.8zm2.5.9s10.3-44.3 27.3-75.4c0 0-17.4 39.7-23.5 76.7l-3.8-1.3z"/><path d="M304.7 788.4s20.2-54.8 28.2-84.4c0 0-4.6 29.8-24.3 85.7l-3.9-1.3zm13.8 4.8s14.8-43.5 16.4-80.4c0 0 3.3 30.2-12 81.9l-4.4-1.5z"/><path d="M303.6 788s9.2-26.5 23.7-45.4 21.5-38.1 24.8-47.4c0 0-3.3 20.3-24.3 52.7-17.6 27.2-20.6 41.4-20.6 41.4l-3.6-1.3z"/><path d="M315.6 792.2s25.4-55.8 27.1-73.8c0 0 4.3 2.9-22.9 75.3l-4.2-1.5zm6.3 2.2s15.5-26.8 24.3-66c0 0-1.1 30.3-19.1 67.8l-5.2-1.8z"/><path d="M326.6 796.1s16.3-44.5 27.3-66.5c0 0-8.2 27.9-23.6 67.8l-3.7-1.3z"/><path d="M330.1 797.3s12.6-37.2 29-63.4c0 0-16 38.2-25.3 64.7l-3.7-1.3z"/><path d="M336.2 799.4s15.9-20 18.2-42.5c2.3-22.5 7.2-35.9 12.4-44 0 0-9.8 26.6-9.5 41.1.3 14.5-7.3 35.4-16.5 47l-4.6-1.6z"/><path d="M333.3 798.4s26.3-57.6 44.7-80.2c0 0-25.3 41.9-40.8 81.6l-3.9-1.4z"/><path d="M340.2 800.8s13.7-42.9 46.3-68.1c0 0-29.8 29.7-42.3 69.5l-4-1.4z"/><path d="M343.2 801.9s23-47.6 50.2-70.8c0 0-32.1 38.8-46.6 72.1l-3.6-1.3z"/><path d="M346.4 803s32.1-48.6 22.9-99.3c0 0 16.4 32.1-19 100.6l-3.9-1.3z"/><path d="M349.2 804s25.4-45.8 62.3-66.1c0 0-40.8 29.2-58 67.6l-4.3-1.5z"/><path d="M352.8 805.3s20.8-27 31.8-61.3c0 0-4 25.1-27.4 62.9l-4.4-1.6z"/><path d="M364.8 809.5s18.6-28.6 6.7-66.7c0 0 14.7 24.7-3.4 67.8l-3.3-1.1z"/><path d="M367.6 810.5s14.1-30.2-.1-59.8c0 0 17.2 24.5 3.1 60.8l-3-1z"/><path d="M361.9 808.4s17.2-45.8 25.3-92.3c0 0-13.8 37.9-29.9 90.7l4.6 1.6z"/><path d="M361.2 808.2s15.8-43 45.9-59c0 0-27.8 20.6-41.8 60.5l-4.1-1.5zm17.5 6.2s15.1-51.8 60.5-84.8c0 0-40.6 36.1-56.1 86.3l-4.4-1.5z"/><path d="M384.9 816.6s12.5-37.7 44.5-56.2c0 0-27.4 22.3-39.9 57.8l-4.6-1.6z"/><path d="M392.6 819.3s6.8-6.7 21.8-39.3c0 0-5.4 17.4-17.8 40.8l-4-1.5zm5.4 1.8s12.4-7.4 23.7-49.5c0 0-2.7 27.5-19.3 51.1l-4.4-1.6zm-27.4-9.6s11.3-40.5 36-57.3c0 0-24.5 25-31.9 58.7l-4.1-1.4z"/><path d="M374 812.7s8.6-40.4 42-46c0 0-26.2 5.4-36.5 48l-5.5-2zm-65.4-23s2-16.3 17.9-33.3c0 0-12.4 17.7-14.1 34.6l-3.8-1.3z"/><path d="M311.4 790.7s2.9-12.5 12.2-25.3c0 0-1.6 13.2-7.4 26.9l-4.8-1.6zm88.3 31s17.4-20.4 17.4-57.9c0 0-2.4 30.4-21 56.6l3.6 1.3zm-18.7-6.5s10.3-31.6 27.3-39.8c0 0-16.6 15-22.6 41.5l-4.7-1.7zm159.2-3.8s-5.8-28.7-28.5-60.5c0 0 21.5 21.8 31.3 60.3l-2.8.2zm5.1-.6s-5.7-26.6-17.4-45.7c0 0 10.6 9.4 20.1 45.4l-2.7.3z"/><path d="M544.4 810.9s-13.7-56.2-17.1-80.4c0 0 8.4 33.7 19.7 80.1l-2.6.3zm2.6-.3s-9.7-44.5-7.7-79.8c0 0 1.3 43.4 11.7 79.4l-4 .4z"/><path d="M551 810.2s-5.3-58.2-10.7-88.3c0 0 8.6 28.9 14.8 87.9l-4.1.4zm15.4-1.6s-6.1-45.3-2.3-79c0 0 .2 43.6 6.9 78.5l-4.6.5z"/><path d="M562.4 809s-1-61.3-7.2-78.3c0 0 5.2.8 11.5 77.8l-4.3.5zm5.7-.6s7.7-26.8 1.2-68.7c0 0 8.3 32.2 4.2 68.1l-5.4.6zm-13.3 1.4s-5.2-15.6 1.9-37.7c0 0-3.6 21.3 2 37.3l-3.9.4z"/><path d="M558.1 809.5s-2.7-12.5.2-28.1c0 0 4.2 12.6 4.8 27.5l-5 .6zm-123.1 13s-4.1-12.7-6.1-24.4c0 0 3.2 7.1 8.2 24.2l-2.1.2zm5.5-.6s-5.8-28.7-28.5-60.5c0 0 21.5 21.8 31.3 60.3l-2.8.2z"/><path d="M442.3 821.7s-5.7-26.6-17.3-45.7c0 0 10.6 9.4 20.1 45.4l-2.8.3z"/><path d="M441.3 821.8s-13.7-56.2-17.1-80.4c0 0 8.4 33.7 19.7 80.1l-2.6.3zm2.7-.3s-9.7-44.5-7.7-79.8c0 0 1.3 43.4 11.7 79.4l-4 .4z"/><path d="M446.9 821.2s-5.3-58.2-10.7-88.3c0 0 8.6 28.9 14.8 87.9l-4.1.4zm14.6-1.5s-5.3-45.6-19.7-79.6c0 0 15.9 25.9 24.3 79.1l-4.6.5z"/><path d="M445.8 821.3s-3.1-27.9 1.9-51.2c5-23.3 3.1-43.6 2-53.5 0 0 5.7 19.8.6 58-4.3 32.1-.9 46.2-.9 46.2l-3.6.5z"/><path d="M458.4 820s-1-61.3-7.2-78.3c0 0 5.2.8 11.5 77.8l-4.3.5zm6.6-.7s2.5-30.8-6.4-70c0 0 12 27.9 11.9 69.5l-5.5.5z"/><path d="M470 818.8s-4.3-47.2-3.8-71.8c0 0 4.6 28.7 7.8 71.4l-4 .4z"/><path d="M473.7 818.4s-4.6-39-1-69.7c0 0 1.9 41.3 4.9 69.3l-3.9.4z"/><path d="M480.1 817.7s5.8-24.9-1.8-46.2c-7.6-21.3-8.8-35.5-7.6-45.1 0 0 2.5 28.2 9 41.2 6.5 13 8.6 35.1 5.2 49.6l-4.8.5z"/><path d="M477 818s-.9-63.3 6.1-91.6c0 0-4.9 48.7-1.9 91.2l-4.2.4z"/><path d="M484.3 817.3s-6-44.6 12.6-81.4c0 0-14.2 39.6-8.4 80.9l-4.2.5z"/><path d="M487.5 816.9s.4-52.8 15-85.5c0 0-12.3 48.8-11.2 85.1l-3.8.4z"/><path d="M490.8 816.6s8.2-57.6-21.9-99.5c0 0 28.6 21.9 25.9 99.1l-4 .4z"/><path d="M493.8 816.3s3.3-52.2 28-86.4c0 0-24.3 43.9-23.4 86l-4.6.4z"/><path d="M497.6 815.9s7.2-33.3 2.5-69.1c0 0 7.2 24.4 2.2 68.6l-4.7.5z"/><path d="M510.2 814.5s4.6-33.8-22.5-63.1c0 0 23.9 16 26 62.7l-3.5.4z"/><path d="M513.3 814.2s-.2-33.3-25.7-54c0 0 26.1 14.8 28.9 53.7l-3.2.3z"/><path d="M507.2 814.9s-4-48.8-16.7-94.2c0 0 3.8 40.1 11.9 94.7l4.8-.5z"/><path d="M506.5 814.9s-4.1-45.6 16.2-73c0 0-16.3 30.6-11.8 72.6l-4.4.4zm18.4-1.9s-8.6-53.3 18.3-102.5c0 0-21.2 50-13.7 102l-4.6.5z"/><path d="M531.5 812.3s-4.8-39.5 16.1-69.8c0 0-15.2 31.8-11.2 69.3l-4.9.5z"/><path d="M539.6 811.4s3.3-9 2.9-44.9c0 0 2.6 18 1.4 44.5l-4.3.4zm-23.2 2.5s-7.2-41.4 7.9-67.2c0 0-11.4 33.1-3.6 66.7l-4.3.5z"/><path d="M519.9 813.5s-9.6-40.2 18.3-59.6c0 0-21.3 16.1-12.4 59l-5.9.6zm-68.9 7.3s-5.2-15.6 1.9-37.7c0 0-3.6 21.3 2 37.3l-3.9.4z"/><path d="M454 820.5s-2.7-12.5.2-28.1c0 0 4.2 12.6 4.8 27.5l-5 .6zm93-9.9s7-25.9-9-59.7c0 0 10.8 28.5 5.3 60.1l3.7-.4zm-19.7 2.1s-4.3-33 7.6-47.7c0 0-8.6 20.6-2.7 47.2l-4.9.5z"/><path d="M535.5 811.9s-3.4-22.5 24.1-46.2c0 0-23.6 23.7-19.3 45.7l-4.8.5zm-93.5 9.8s19.5-47.5-15.1-99c0 0 26.1 41.4 7.8 99.7l7.3-.7z"/><path d="M435.3 822.4s8.1-36.9-11.5-65.3c0 0 13.5 18.4 6.9 65.8l4.6-.5zm241.1-65.8s-15.9-24.7-48.6-46c0 0 28 12.4 51.1 44.7l-2.5 1.3zm4.7-2.4s-15-22.7-32.8-36.2c0 0 13.3 4.9 35.2 35l-2.4 1.2z"/><path d="M680.2 754.7s-33.3-47.4-45.2-68.6c0 0 20.1 28.3 47.6 67.4l-2.4 1.2z"/><path d="M682.6 753.5s-25.2-37.9-36.2-71.5c0 0 17 39.9 39.8 69.7l-3.6 1.8z"/><path d="M686.1 751.6S660 699.3 644 673.2c0 0 18.5 23.8 45.8 76.4l-3.7 2zm13.8-7.1s-22.2-39.9-30.9-72.7c0 0 16.1 40.5 35 70.6l-4.1 2.1z"/><path d="M684.2 752.6s-13-24.8-16.8-48.4c-3.8-23.5-13-41.8-17.6-50.5 0 0 12.5 16.3 21.7 53.8 7.7 31.5 16 43.4 16 43.4l-3.3 1.7z"/><path d="M696.3 746.3S673 689.6 661.1 676c0 0 5.1-1.2 39.1 68.3l-3.9 2zm5-2.6s-2.6-27.7-23.9-64.4c0 0 19.4 26.9 28.7 61.9l-4.8 2.5zm-11.8 6.1s-10.6-12.6-11.9-35.8c0 0 4.4 21.1 15.5 34l-3.6 1.8z"/><path d="M692.4 748.4s-7.1-10.7-10.1-26.2c0 0 8.5 10.2 14.5 23.9l-4.4 2.3zm-110.9 57.4s-16.2-22.5-32.6-33.7c0 0 10.5 15.4 30.1 35l2.5-1.3zm1-.5s-8.5-10.4-14.6-20.5c0 0 5.6 5.4 16.5 19.6l-1.9.9zm4.9-2.5s-15.9-24.7-48.6-46c0 0 28 12.4 51.1 44.7l-2.5 1.3z"/><path d="M589 801.9s-15-22.7-32.8-36.2c0 0 13.3 4.9 35.2 35l-2.4 1.2z"/><path d="M590.5 801.1s-25.2-37.9-36.2-71.5c0 0 17 39.9 39.8 69.7l-3.6 1.8z"/><path d="M593.1 799.8S567 747.5 551 721.4c0 0 18.5 23.8 45.8 76.4l-3.7 2zm13.1-6.8s-21.5-40.6-47.3-67c0 0 24.2 18.3 51.4 64.9l-4.1 2.1z"/><path d="M592.2 800.3s-13-24.8-16.8-48.4c-3.8-23.5-13-41.8-17.6-50.5 0 0 12.5 16.3 21.7 53.8 7.7 31.5 16 43.4 16 43.4l-3.3 1.7z"/><path d="M603.4 794.5s-23.3-56.7-35.2-70.3c0 0 5.1-1.2 39.1 68.3l-3.9 2zm5.9-3.1s-8.9-29.6-31.5-62.9c0 0 21.3 21.6 36.3 60.4l-4.8 2.5z"/><path d="M613.8 789.1s-21.2-42.4-29.7-65.5c0 0 14.7 25 33.2 63.7l-3.5 1.8z"/><path d="M617.1 787.4s-18.5-34.7-26.3-64.5c0 0 16.9 37.8 29.8 62.7l-3.5 1.8z"/><path d="M622.8 784.4s-3.7-25.3-18.5-42.4c-14.8-17.1-21.2-29.9-23.6-39.2 0 0 12.6 25.4 23.4 35.1 10.7 9.8 20.8 29.6 22.9 44.3l-4.2 2.2z"/><path d="M620.1 785.8s-23.9-58.6-27.7-87.5c0 0 13.2 47.2 31.4 85.6l-3.7 1.9z"/><path d="M626.6 782.5s-21.9-39.4-17.9-80.4c0 0 1.2 42.1 21.6 78.4l-3.7 2z"/><path d="M629.4 781s-18.9-49.3-17.1-85.1c0 0 6.3 49.9 20.5 83.4l-3.4 1.7z"/><path d="M632.4 779.5s-13.4-56.6-56.6-84.7c0 0 34.6 10 60.2 82.8l-3.6 1.9z"/><path d="M635.1 778.1s-15.9-49.9-5.4-90.7c0 0-6.6 49.7 9.5 88.6l-4.1 2.1z"/><path d="M638.4 776.3s-5.4-33.6-22.8-65.2c0 0 15.6 20.1 27 63.1l-4.2 2.1z"/><path d="M649.7 770.5s-8-33.1-43.9-50.6c0 0 28.1 6.2 47.1 48.9l-3.2 1.7z"/><path d="M652.4 769.1s-12.3-31-43.6-40.9c0 0 29.7 4.2 46.4 39.5l-2.8 1.4z"/><path d="M647 771.9s-21.5-43.9-49.9-81.7c0 0 18.1 36 45.6 83.9l4.3-2.2z"/><path d="M646.4 772.2s-20.4-41-11.5-73.9c0 0-4 34.4 15.4 71.9l-3.9 2zm16.4-8.5s-27.4-46.5-20.3-102.2c0 0-1.5 54.3 24.4 100l-4.1 2.2z"/><path d="M668.7 760.6s-18.9-35-10.4-70.9c0 0-2.5 35.2 14.8 68.6l-4.4 2.3z"/><path d="M675.9 756.9s-.2-9.6-13.7-42.9c0 0 9 15.9 17.5 40.9l-3.8 2zm5.1-2.6s3.1-14.1-19.8-51.2c0 0 18.2 20.7 23.9 49.1l-4.1 2.1zm-25.8 13.3s-21.8-35.9-17.1-65.4c0 0 1.4 34.9 20.9 63.4l-3.8 2z"/><path d="M658.4 766s-23.5-33.9-4.7-62.1c0 0-14 22.8 9.9 59.4l-5.2 2.7zm-61.5 31.9s-10.6-12.6-11.9-35.8c0 0 4.4 21.1 15.5 34l-3.6 1.8z"/><path d="M599.5 796.5s-7.1-10.7-10.1-26.2c0 0 8.5 10.2 14.5 23.9l-4.4 2.3zm83.1-43s-2.9-26.7-30.2-52.3c0 0 20.4 22.6 26.8 54.1l3.4-1.8zm-17.6 9.1s-16-29.2-10.3-47.2c0 0-.5 22.3 14.7 44.9l-4.4 2.3z"/><path d="M672.3 758.8S661 739.1 678 707c0 0-13.3 30.6-1.4 49.6l-4.3 2.2zm-83.6 43.3s.8-51.3-50.1-86.7c0 0 39.4 29 43.6 90.1l6.5-3.4zm201.5-147.8s-23.2-17.9-61.3-27c0 0 30.5 2.3 63.1 25l-1.8 2zm3.6-3.9s-21.8-16.3-43.1-23.1c0 0 14.1.1 44.9 21.1l-1.8 2z"/><path d="M793.1 651.1s-47.3-33.4-65.7-49.4c0 0 28.4 19.9 67.5 47.5l-1.8 1.9zm1.8-1.9S758.4 622 736.7 594c0 0 29.4 31.9 60.9 52.2l-2.7 3z"/><path d="M797.6 646.3s-42.2-40.5-66-59.7c0 0 25.4 16.2 68.8 56.6l-2.8 3.1zm10.6-11.4s-34.4-30.2-53.5-58.1c0 0 28.8 32.8 56.7 54.7l-3.2 3.4z"/><path d="M796.1 647.9s-20.6-19-32.1-39.9-26.3-35-33.6-41.7c0 0 17.3 11.2 38.5 43.4 17.9 27.1 29.7 35.4 29.7 35.4l-2.5 2.8z"/><path d="M805.5 637.9s-41-45.6-56.8-54.4c0 0 4.4-2.8 59.8 51.2l-3 3.2zm3.8-4.2s-11.8-25.2-44.2-52.6c0 0 27.3 18.8 47.9 48.7l-3.7 3.9zm-9 9.8s-14.2-8.3-23.3-29.7c0 0 11.2 18.4 26 26.8l-2.7 2.9z"/><path d="M802.5 641.1s-10.2-7.7-18.3-21.3c0 0 11.4 6.8 21.7 17.6l-3.4 3.7zm-85.2 91.4s-22.8-15.7-42-20.8c0 0 15.1 11 40.1 22.8l1.9-2zm.8-.8s-11.5-6.9-20.6-14.4c0 0 7.1 3.3 22.1 12.9l-1.5 1.5zm3.8-4.1s-23.2-17.9-61.3-27c0 0 30.5 2.3 63.1 25l-1.8 2z"/><path d="M723.1 726.3S701.3 710 680 703.2c0 0 14.1.1 44.9 21.1l-1.8 2z"/><path d="M722.5 727s-47.3-33.4-65.7-49.4c0 0 28.4 19.9 67.5 47.5l-1.8 1.9zm1.8-2s-36.5-27.2-58.2-55.2c0 0 29.4 31.9 60.9 52.2l-2.7 3z"/><path d="M726.3 722.9s-42.2-40.5-66-59.7c0 0 25.4 16.2 68.8 56.6l-2.8 3.1zm10-10.8s-33.9-31-67.1-47.2c0 0 29 9.1 70.2 43.8l-3.1 3.4z"/><path d="M725.5 723.7s-20.6-19-32.1-39.9-26.3-35-33.6-41.7c0 0 17.3 11.2 38.5 43.4 17.9 27.1 29.7 35.4 29.7 35.4l-2.5 2.8z"/><path d="M734.2 714.4s-41-45.6-56.8-54.4c0 0 4.4-2.8 59.8 51.2l-3 3.2zm4.5-4.8s-18.4-24.9-50.8-48.7c0 0 27.3 13.2 54.5 44.6l-3.7 4.1z"/><path d="M742.2 705.8s-34.3-32.8-50-51.7c0 0 22.3 18.6 52.7 48.8l-2.7 2.9z"/><path d="M744.7 703.1s-29.1-26.5-46.4-52c0 0 28.6 29.9 49.1 49.1l-2.7 2.9z"/><path d="M749 698.5s-12-22.6-31.7-33.7c-19.7-11.1-30-21-35.4-29 0 0 20.4 19.6 33.8 25.2 13.4 5.6 29.5 20.9 36.5 34l-3.2 3.5z"/><path d="M746.9 700.7s-42.2-47.2-55.6-73.1c0 0 28.3 40 58.4 70.1l-2.8 3z"/><path d="M751.9 695.3s-33.8-29.7-43.9-69.7c0 0 15.3 39.2 46.8 66.6l-2.9 3.1z"/><path d="M754.1 693s-34.4-40.1-44.8-74.4c0 0 22.7 44.9 47.4 71.6l-2.6 2.8z"/><path d="M756.4 690.6s-31.6-48.8-81.8-60.7c0 0 36-2.2 84.6 57.7l-2.8 3z"/><path d="M758.5 688.3s-31.8-41.6-35.6-83.6c0 0 10.5 49 38.8 80.2l-3.2 3.4z"/><path d="M761 685.6s-16.4-29.9-43.4-53.7c0 0 21.4 13.7 46.6 50.3l-3.2 3.4z"/><path d="M769.7 676.3s-18.7-28.5-58.4-32.9c0 0 28.5-3.6 60.8 30.3l-2.4 2.6z"/><path d="M771.8 674.1s-22-25-54.8-23.8c0 0 29.4-6 57 21.6l-2.2 2.2z"/><path d="M767.6 678.5s-35-34.1-74.4-60.1c0 0 29.2 27.8 71.1 63.7l3.3-3.6z"/><path d="M767.1 679s-33-31.7-35.7-65.7c0 0 7.8 33.7 38.7 62.5l-3 3.2zm12.7-13.5s-41.5-34.6-53.4-89.4c0 0 16.8 51.7 56.6 86l-3.2 3.4z"/><path d="M784.3 660.6s-29.5-26.6-33.6-63.3c0 0 9.4 34 37 59.7l-3.4 3.6z"/><path d="M789.8 654.7s-3.4-8.9-27.3-35.8c0 0 13.8 11.9 30.2 32.6l-2.9 3.2zm3.9-4.2s-1.8-14.3-35.9-41.5c0 0 24.1 13.4 39 38.2l-3.1 3.3zm-19.8 21.3s-32.6-26.5-38.1-55.9c0 0 13.1 32.4 41 52.7l-2.9 3.2z"/><path d="M776.3 669.1s-33.6-24.1-25.3-57c0 0-5.5 26.2 29.3 52.6l-4 4.4zm-47.2 50.7s-14.2-8.3-23.3-29.7c0 0 11.2 18.4 26 26.8l-2.7 2.9z"/><path d="M731.2 717.7s-10.2-7.7-18.3-21.3c0 0 11.4 6.8 21.7 17.6l-3.4 3.7zm63.7-68.5s-11.7-24.1-46-39.2c0 0 26.8 14.4 43.5 41.9l2.5-2.7zm-13.5 14.5s-24.9-22.1-25.6-41c0 0 7.1 21.2 28.9 37.4l-3.3 3.6z"/><path d="M787 657.7S769.7 643 774.9 607c0 0-2.3 33.3 15.4 47.2l-3.3 3.5zm-64.1 68.8s-16.5-48.6-76.3-64.8c0 0 46.8 14.1 71.3 70.2l5-5.4z"/><path d="M718.3 731.4s-18.1-33.1-51.5-41.7c0 0 22.2 5 48.4 45.1l3.1-3.4z"/><path fill="#FEFFFD" d="M103.1 546.826h-.5c-6.8 1.2-10.6 8.4-11.1 14.8-.8 5.8 1.8 13.2 8.1 14.5.9.2 1.9.1 2.8-.1 7.6-2.6 11.1-11.6 10-19.1-.4-4.9-4.1-10.2-9.3-10.1zm-29 .3c-4.3.1-7.6 4.4-8.2 8.5-1.4 8 2.2 18 10.6 20.5.8.2 1.6.2 2.4.1 5.7-.9 8-7.3 7.8-12.4-.2-6.7-3.7-14.6-10.7-16.5-.6-.2-1.3-.2-1.9-.2zm47.5 22.8c-7.4.4-12.4 7.8-13.1 14.6-1 4.9 1.7 11.5 7.3 11.9 7.9-.1 13.2-8.5 13.4-15.7.6-4.7-2.3-10.5-7.6-10.8zm-64.3 1.6c-3.1 0-6.2 1.8-7.2 5-2.7 8.5 2.7 19.3 11.8 21.1 3.8.6 7.1-2.2 8-5.7 2-7.4-2.1-16.1-9-19.4-1.2-.7-2.4-1-3.6-1zm32.9 15.3c-6.1 0-12.4 3.1-16.3 7.8-4.3 5.4-7.8 11.7-9.2 18.5-1.7 4.9 2.1 10.6 7.4 10.6 6.3.2 11.7-4.2 18-4.5 5.3-.8 10.1 2 14.9 3.8 4.1 1.7 9.7 1.1 11.8-3.3 1.6-4.5-.8-9.2-2.8-13.2-4.1-6.4-8.4-13.2-15.1-17.2-2.7-1.8-5.7-2.5-8.7-2.5zm757.9-40h-.5c-6.8 1.2-10.6 8.4-11.1 14.8-.8 5.8 1.8 13.2 8.1 14.5.9.2 1.9.1 2.8-.1 7.6-2.6 11.1-11.6 10-19.1-.4-4.9-4-10.2-9.3-10.1zm-28.9.3c-4.3.1-7.6 4.4-8.2 8.5-1.4 8 2.2 18 10.6 20.5.8.2 1.6.2 2.4.1 5.7-.9 8-7.3 7.8-12.4-.2-6.7-3.7-14.6-10.7-16.5-.7-.2-1.3-.2-1.9-.2zm47.5 22.8c-7.4.4-12.4 7.8-13.1 14.6-1 4.9 1.7 11.5 7.3 11.9 7.9-.1 13.2-8.5 13.4-15.7.5-4.7-2.3-10.5-7.6-10.8zm-64.4 1.6c-3.1 0-6.2 1.8-7.2 5-2.7 8.5 2.7 19.3 11.8 21.1 3.8.6 7.1-2.2 8-5.7 2-7.4-2.1-16.1-9-19.4-1.1-.7-2.4-1-3.6-1zm33 15.3c-6.1 0-12.4 3.1-16.3 7.8-4.3 5.4-7.8 11.7-9.2 18.5-1.7 4.9 2.1 10.6 7.4 10.6 6.3.2 11.7-4.2 18-4.5 5.3-.8 10.1 2 14.9 3.8 4.1 1.7 9.7 1.1 11.8-3.3 1.6-4.5-.8-9.2-2.8-13.2-4.1-6.4-8.4-13.2-15.1-17.2-2.8-1.8-5.7-2.5-8.7-2.5z"/></svg>